<?xml version="1.0" encoding="utf-8"?>
<!-- Generator: Adobe Illustrator 28.2.0, SVG Export Plug-In . SVG Version: 6.00 Build 0)  -->
<svg version="1.1" id="Layer_1" xmlns="http://www.w3.org/2000/svg" xmlns:xlink="http://www.w3.org/1999/xlink" x="0px" y="0px"
	 viewBox="0 0 1024 1024" style="enable-background:new 0 0 1024 1024;" xml:space="preserve">
<style type="text/css">
	.st0{fill:#E4EAEF;}
	.st1{fill:#A7AFB5;}
</style>
<rect x="1" class="st0" width="1024" height="1024"/>
<g>
	<path class="st1" d="M632.32,414H391.68c-7.54,0-13.68,6.14-13.68,13.68v168.64c0,7.54,6.14,13.68,13.68,13.68h240.65
		c7.54,0,13.68-6.14,13.68-13.68V427.68C646,420.14,639.87,414,632.32,414z M579.49,508.22c9.15-9.15,24.04-9.15,33.19,0
		l22.24,22.24v65.86c0,1.43-1.17,2.6-2.6,2.6H568.1l-39.65-39.65L579.49,508.22z M487.2,533.68l65.23,65.23H391.68
		c-0.78,0-1.49-0.35-1.97-0.93l64.3-64.3C463.16,524.53,478.05,524.53,487.2,533.68z M571.66,500.38l-51.04,51.04l-25.58-25.58
		c-6.52-6.52-15.19-10.1-24.43-10.1c-9.24,0-17.91,3.59-24.43,10.1l-57.09,57.09V427.68c0-1.43,1.17-2.6,2.6-2.6h240.65
		c1.43,0,2.6,1.17,2.6,2.6v87.11l-14.41-14.41C607.04,486.92,585.13,486.92,571.66,500.38z"/>
	<path class="st1" d="M502.2,444.48c-16.78,0-30.42,13.65-30.42,30.42s13.65,30.42,30.42,30.42c16.78,0,30.42-13.65,30.42-30.42
		S518.98,444.48,502.2,444.48z M521.55,474.9c0,10.67-8.68,19.34-19.34,19.34s-19.34-8.68-19.34-19.34s8.68-19.34,19.34-19.34
		S521.55,464.24,521.55,474.9z"/>
</g>
</svg>
