<?xml version="1.0" encoding="utf-8"?>
<!-- Generator: Adobe Illustrator 28.2.0, SVG Export Plug-In . SVG Version: 6.00 Build 0)  -->
<svg version="1.1" id="Layer_1" xmlns="http://www.w3.org/2000/svg" xmlns:xlink="http://www.w3.org/1999/xlink" x="0px" y="0px"
	 viewBox="0 0 1024 1024" style="enable-background:new 0 0 1024 1024;" xml:space="preserve">
<style type="text/css">
	.st0{fill:#E4EAEF;}
	.st1{fill:#98A0A5;}
</style>
<rect x="1" class="st0" width="1024" height="1024"/>
<g>
	<path class="st1" d="M351.5,407.05c-0.48,0.33-1.05,0.55-1.77,0.59c0.66,12.68,2.9,25.09,6.69,37.19
		c4.5,14.36,10.43,28.09,19.14,40.48c0.72,1.92,2,3.48,3.28,5.04c0.59,0.79,1.19,1.57,1.78,2.36c7.53,11.35,16.88,21.09,27.42,29.57
		c39.92,32.09,85.26,44.05,135.62,34.39c72.18-13.84,126.01-74.81,130.98-149.29c1.03-15.5-0.64-30.68-3.83-45.73
		c-2.94-13.86-7.48-27.22-14.33-39.71c-4.9-10.38-11.42-19.72-18.69-28.51c-10-12.09-21.31-22.79-34.64-31.21
		c-0.26-0.26-0.48-0.58-0.78-0.78c-19.63-13.06-41.09-21.44-64.36-25.28c-4.69-0.77-9.53-0.58-14.08-2.16c-8.2,0-16.39,0-24.59,0
		c-4.91,1.76-10.15,1.53-15.2,2.47c-39.98,7.48-73.17,26.66-98.69,58.32c-26.49,32.87-38.24,70.66-35.71,112.84
		C350.45,407.6,351.02,407.38,351.5,407.05z M352.48,406.12c0.28-0.33,0.56-0.68,0.83-1.04
		C353.04,405.44,352.77,405.79,352.48,406.12z"/>
	<path class="st1" d="M764.62,754.9c0-3.97,0-7.95,0-11.92c-2.35-10.47-7.91-19.25-14.33-27.63c-9.02-11.77-19.39-22.2-30.96-31.44
		c-17.12-13.66-35.7-24.92-55.91-33.43c-0.97-0.52-1.91-1.11-2.92-1.55c-41.47-17.92-85-26.75-129.96-28.74
		c-22.95-1.01-45.88-0.21-68.72,2.67c-33.02,4.16-65.04,12.03-95.68,25.1c-33.03,14.09-62.89,32.83-86.47,60.42
		c-7.41,8.67-14.61,17.57-18.24,28.71c-0.79,2.43-0.68,5.1-2.05,7.36c0,2.73,0,5.46,0,8.2c0,11.3,0.11,22.61-0.08,33.91
		c-0.05,2.8,0.64,3.43,3.43,3.42c89.3-0.09,178.6-0.07,267.9-0.07c77,0,154.01-0.02,231.01,0.07c2.55,0,3.1-0.49,3.06-3.05
		C764.52,776.27,764.62,765.59,764.62,754.9z"/>
</g>
</svg>
